<?xml version="1.0" encoding="UTF-8" standalone="no"?>
<!DOCTYPE svg PUBLIC "-//W3C//DTD SVG 1.1//EN" "http://www.w3.org/Graphics/SVG/1.1/DTD/svg11.dtd">
<svg version="1.1" xmlns="http://www.w3.org/2000/svg" xmlns:xlink="http://www.w3.org/1999/xlink" preserveAspectRatio="xMidYMid meet" viewBox="17.822523690077794 339 545.1774763099223 159.32407148255584" width="541.18" height="155.32"><defs><path d="M141.79 359.86C141.7 371.68 148.21 377.33 167.3 382.3C179.21 385.38 181.86 387.01 182.2 391.89C182.46 394.97 182.12 395.91 179.98 397.97C172.1 405.93 157.11 402.42 153.95 391.89C153.88 391.65 153.54 390.48 152.92 388.38C148.81 388.74 146.53 388.94 146.07 388.98C142.3 389.32 139.13 389.66 138.96 389.83C138.28 390.43 141.19 399.08 143.24 402.59C147.61 409.95 156.94 414.32 168.42 414.32C182.38 414.32 191.71 409.44 195.65 400.02C197.19 396.42 197.36 388.8 195.99 384.27C193.59 376.47 187.86 372.71 171.16 368.08C165.68 366.54 160.03 364.66 158.66 363.8C151.55 359.52 157.2 351.81 167.39 351.81C173.3 351.81 177.24 353.95 179.38 358.4C179.49 358.64 180.06 359.84 181.09 362L188.28 362.09L195.48 362.09C195.12 359.98 194.92 358.81 194.88 358.58C193.68 351.13 189.23 345.56 181.95 342.31C176.38 339.82 164.31 339.22 157.54 341.11C147.35 344.02 141.87 350.53 141.79 359.86Z" id="cioxeRDWp"></path><path d="M19.68 413.47L46.65 413.47L73.63 413.47L73.63 407.47L73.63 401.48L53.76 401.31L33.81 401.05L33.81 391.63L33.81 382.21L52.05 381.95L70.2 381.78L70.2 375.79L70.2 369.79L51.79 369.79L33.3 369.79L33.55 361.83L33.81 353.95L53.33 353.69L72.77 353.52L72.77 347.53L72.77 341.54L46.23 341.54L19.68 341.54L19.68 377.5L19.68 413.47Z" id="b21Vrm8I63"></path><path d="M85.61 378.1C85.61 380.46 85.61 392.25 85.61 413.47L92.46 413.47L99.32 413.47L99.32 377.5L99.32 341.54C95.56 341.54 93.48 341.54 93.06 341.54C89.55 341.54 86.47 341.79 86.21 342.13C85.87 342.39 85.61 358.58 85.61 378.1Z" id="aTd8WJ81S"></path><path d="M264.58 378.1C264.58 380.46 264.58 392.25 264.58 413.47L271.43 413.47L278.28 413.47L278.28 377.5L278.28 341.54C274.53 341.54 272.45 341.54 272.03 341.54C268.52 341.54 265.44 341.79 265.18 342.13C264.84 342.39 264.58 358.58 264.58 378.1Z" id="awHMKlv1K"></path><path d="M439.26 367.57C437.88 366.18 437.11 365.41 436.95 365.26C428.64 357.38 413.66 359.26 406.98 369.19C403.56 374.33 402.1 381.18 402.7 390C403.38 401.13 407.32 408.07 415.46 412.1C422.91 415.78 431.64 414.41 437.81 408.58C437.96 408.43 438.73 407.66 440.12 406.27L440.12 409.87L440.12 413.47L446.54 413.47L452.96 413.47L452.96 377.5L452.96 341.54L446.11 341.54L439.26 341.54L439.26 354.55L439.26 367.57ZM439.26 387.01C439.26 393.77 437.89 397.54 434.47 400.54C429.07 405.33 421.71 403.7 418.11 396.94C416.06 393.09 416.06 380.67 418.11 376.82C421.54 370.39 429.93 368.85 434.9 373.56C437.81 376.39 439.26 380.84 439.26 387.01Z" id="bvWOcZtrA"></path><path d="M207.72 372.96C207.21 374.59 207.64 374.85 211.49 375.7C218 377.07 219.62 376.9 220.91 374.59C222.45 371.68 226.13 370.31 230.93 370.91C235.55 371.42 238.29 373.9 237.86 377.41C237.61 379.47 237.01 379.81 230.76 381.18C215.94 384.61 212.77 385.89 209.52 389.4C206.01 393.34 204.9 397.88 206.35 403.28C209.26 414.07 224.08 417.83 234.95 410.47C238.98 407.73 239.15 407.81 240.35 410.9C241.29 413.47 241.37 413.47 247.8 413.47C251.39 413.47 254.3 413.38 254.3 413.21C254.3 413.12 253.7 411.5 253.02 409.61C252.16 407.21 251.82 401.99 251.74 391.63C251.56 369.62 250.62 366.28 243.51 362.6C240.86 361.23 238.29 360.8 231.18 360.63C226.22 360.55 221.17 360.8 219.88 361.14C214.23 363.03 209.43 367.65 207.72 372.96ZM227.16 404.39C223.05 404.47 220.57 402.59 219.62 398.82C218.68 395.05 222.02 392.14 229.47 390.35C238.38 388.12 238.03 388.03 238.03 392.49C238.03 399.76 233.92 404.22 227.16 404.39Z" id="b2hhHtLVZr"></path><path d="M347.3 372.96C346.78 374.59 347.21 374.85 351.06 375.7C357.57 377.07 359.2 376.9 360.48 374.59C362.03 371.68 365.71 370.31 370.5 370.91C375.13 371.42 377.87 373.9 377.44 377.41C377.18 379.47 376.58 379.81 370.33 381.18C355.52 384.61 352.35 385.89 349.1 389.4C345.58 393.34 344.47 397.88 345.93 403.28C348.84 414.07 363.65 417.83 374.53 410.47C378.55 407.73 378.72 407.81 379.92 410.9C380.86 413.47 380.95 413.47 387.37 413.47C390.97 413.47 393.88 413.38 393.88 413.21C393.88 413.12 393.28 411.5 392.59 409.61C391.74 407.21 391.4 401.99 391.31 391.63C391.14 369.62 390.2 366.28 383.09 362.6C380.44 361.23 377.87 360.8 370.76 360.63C365.79 360.55 360.74 360.8 359.46 361.14C353.8 363.03 349.01 367.65 347.3 372.96ZM366.73 404.39C362.62 404.47 360.14 402.59 359.2 398.82C358.26 395.05 361.6 392.14 369.05 390.35C377.95 388.12 377.61 388.03 377.61 392.49C377.61 399.76 373.5 404.22 366.73 404.39Z" id="a9ctzA8y2s"></path><path d="M465.72 374.93C462.9 380.33 462.73 393.94 465.47 399.76C467.86 404.9 472.06 409.01 477.8 411.67C481.73 413.55 483.7 413.89 489.78 413.89C496.04 413.89 497.75 413.55 501.94 411.5C510.93 407.04 515.56 399.76 516.16 388.98C516.67 380.24 514.96 374.85 510.16 369.37C505.03 363.54 499.46 360.97 491.07 360.72C487.3 360.55 483.28 360.72 482.08 361.14C474.71 363.54 469.23 368.17 465.72 374.93ZM502.2 387.35C502.2 394.28 500.4 398.14 495.69 401.31C490.3 404.99 482.93 402.76 479.08 396.25C476.68 392.14 476.68 382.55 479.17 378.36C481.48 374.33 485.85 371.51 489.78 371.51C491.67 371.51 494.15 372.28 495.78 373.48C500.4 376.56 502.2 380.41 502.2 387.35Z" id="bj55p1Gqp"></path><path d="M542.27 365C542.09 365.2 541.18 366.2 539.53 368L539.28 364.83L539.02 361.66L532.86 361.4L526.6 361.14L526.6 387.35L526.6 413.47L533.45 413.47L540.31 413.47C540.31 404.83 540.31 400.04 540.31 399.08C540.31 391.2 540.73 383.07 541.25 380.93C542.79 374.08 547.16 371.25 552.72 373.65C555.03 374.59 555.89 374.59 556.15 373.82C556.32 373.22 557.26 370.65 558.29 368.08C559.23 365.51 560 363.29 560 363.11C560 362.94 558.63 362.26 557 361.57C553.75 360.29 549.47 360.12 546.64 361.23C545.7 361.57 543.73 363.29 542.27 365Z" id="a1kwJ3vaF"></path><path d="M303.63 403.79C303.89 404.43 305.2 407.66 307.57 413.47L313.82 413.47L319.98 413.47C325.94 398.36 329.25 389.97 329.91 388.29C335.48 374.42 339.93 362.69 339.93 362.17C339.93 360.8 327.52 360.89 326.49 362.26C325.72 363.2 316.64 387.52 314.5 394.11C313.82 396.34 313.39 395.48 309.28 384.27C306.88 377.5 303.97 369.62 302.86 366.8C302.72 366.45 302.07 364.74 300.89 361.66C296.98 361.5 294.81 361.42 294.38 361.4C290.78 361.23 287.61 361.49 287.36 361.92C287.01 362.51 292.32 376.3 303.63 403.79Z" id="i8HpAgXK3"></path><path d="M215.67 479.39L230.23 479.39L244.79 479.39L244.79 477.25L244.79 475.19L233.06 474.94L221.24 474.68L220.98 468L220.72 461.41L231.94 461.41L243.07 461.41L243.07 459.27L243.07 457.21L232.2 456.96L221.24 456.7L221.24 450.7L221.24 444.71L232.63 444.45L243.93 444.2L243.93 442.14L243.93 440L229.8 440L215.67 440L215.67 459.7L215.67 479.39Z" id="a13TZvkbTG"></path><path d="M272.7 449.93C273.13 450.54 275.27 453.56 279.12 459.01C274.76 464.87 272.33 468.12 271.85 468.77C267.82 474.08 264.48 478.71 264.48 478.96C264.48 479.22 265.77 479.39 267.31 479.39C269.96 479.39 270.65 478.79 275.96 471.26C279.12 466.8 281.86 463.12 281.95 463.12C282.04 463.12 284.6 466.8 287.69 471.26C293 479.05 293.25 479.3 296.42 479.39C298.82 479.39 299.5 479.13 299.08 478.28C298.65 477.76 295.39 473.05 291.71 467.92C287.6 462.09 285.29 458.24 285.72 457.64C286.15 457.13 288.89 453.44 291.88 449.42C294.88 445.39 297.71 441.63 298.13 441.03C298.73 440.26 298.22 440 295.99 440C293.34 440 292.65 440.6 287.69 447.28C284.78 451.3 282.21 454.56 282.12 454.56C282.04 454.56 279.64 451.3 276.9 447.28C272.36 440.6 271.67 440 269.02 440C267.48 440 266.19 440.17 266.19 440.43C266.19 440.6 269.11 444.88 272.7 449.93Z" id="a3lWeX9q5I"></path><path d="M319.28 479.39L321.85 479.39L324.42 479.39L324.42 471.26L324.42 463.12C329.46 463.12 332.25 463.12 332.81 463.12C339.66 463.12 341.63 462.78 343.95 461.41C351.48 456.78 350.45 443.94 342.32 441.11C340.69 440.51 334.87 440.09 329.39 440.09C328.71 440.08 325.35 440.05 319.28 440L319.28 459.7L319.28 479.39ZM340.18 457.9C338.98 458.41 334.95 458.84 331.27 458.84C330.82 458.84 328.53 458.84 324.42 458.84L324.42 451.47L324.42 444.11C329.05 444.32 331.61 444.43 332.13 444.45C337.87 444.71 340.18 445.22 341.46 446.34C345.06 449.59 344.37 455.93 340.18 457.9Z" id="izErxoojm"></path><path d="M370.66 479.39L373.23 479.39L375.8 479.39L375.8 470.31L375.8 461.24C378.88 461.44 380.59 461.56 380.94 461.58C387.1 462.01 388.22 462.95 394.38 472.28C398.66 478.96 399.09 479.39 401.92 479.39C403.54 479.39 404.91 479.22 404.91 478.96C404.91 477.76 395.24 463.81 393.78 462.95C391.47 461.49 391.64 460.89 394.47 460.29C397.72 459.61 401.32 455.84 402 452.33C402.77 448.31 400.2 443.43 396.35 441.54C393.95 440.34 391.13 440 382.05 440C381.29 440 377.49 440 370.66 440L370.66 459.7L370.66 479.39ZM394.55 455.07C393.1 456.36 391.13 456.78 384.28 456.96C383.71 456.98 380.89 457.09 375.8 457.3L375.8 450.79L375.8 444.28C380.63 444.28 383.31 444.28 383.85 444.28C390.61 444.28 392.15 444.54 394.12 446.08C396.95 448.31 397.21 452.67 394.55 455.07Z" id="f337MsJ9uQ"></path><path d="M425.46 479.39L440.02 479.39L454.58 479.39L454.58 477.25L454.58 475.19L442.85 474.94L431.03 474.68L430.77 468L430.52 461.41L441.73 461.41L452.87 461.41L452.87 459.27L452.87 457.21L441.99 456.96L431.03 456.7L431.03 450.7L431.03 444.71L442.42 444.45L453.72 444.2L453.72 442.14L453.72 440L439.59 440L425.46 440L425.46 459.7L425.46 479.39Z" id="coLVOm5M6"></path><path d="M477.78 454.81C478.98 457.47 483.61 460.04 489.69 461.41C499.62 463.63 502.36 466.03 500.65 471C498.33 477.68 482.84 476.39 480.7 469.29C480.01 466.97 479.5 466.55 477.44 466.55C475.04 466.55 474.96 466.72 475.47 469.29C477.01 477.16 485.06 481.36 495.42 479.82C498.51 479.39 500.22 478.45 502.7 475.97C505.53 473.23 505.96 472.2 505.96 468.94C505.96 462.35 502.36 459.18 491.74 456.61C483.95 454.73 481.98 453.44 481.98 450.28C481.98 445.82 485.92 443.68 492.51 444.54C496.19 445.05 499.96 448.22 499.96 450.79C499.96 452.07 502.27 452.42 504.16 451.22C506.64 449.59 502.62 443.25 497.65 441.2C494.14 439.66 486.6 439.74 483.18 441.2C477.78 443.6 475.39 449.59 477.78 454.81Z" id="a1V7t3qolb"></path><path d="M529.16 454.81C530.36 457.47 534.98 460.04 541.06 461.41C551 463.63 553.74 466.03 552.02 471C549.71 477.68 534.21 476.39 532.07 469.29C531.39 466.97 530.87 466.55 528.82 466.55C526.42 466.55 526.34 466.72 526.85 469.29C528.39 477.16 536.44 481.36 546.8 479.82C549.88 479.39 551.6 478.45 554.08 475.97C556.91 473.23 557.33 472.2 557.33 468.94C557.33 462.35 553.74 459.18 543.12 456.61C535.33 454.73 533.36 453.44 533.36 450.28C533.36 445.82 537.3 443.68 543.89 444.54C547.57 445.05 551.34 448.22 551.34 450.79C551.34 452.07 553.65 452.42 555.53 451.22C558.02 449.59 553.99 443.25 549.03 441.2C545.52 439.66 537.98 439.74 534.56 441.2C529.16 443.6 526.76 449.59 529.16 454.81Z" id="b4R4LsD73q"></path><path d="M137.78 424.74C137.76 424.78 141.14 431.86 145.29 440.46C149.44 449.07 152.86 456.16 152.88 456.22C152.93 456.36 153.2 456.34 149.19 456.5C140.41 456.84 131.95 457.42 127.3 458C126.76 458.07 126.31 458.11 126.28 458.1C126.26 458.08 125.05 456.04 123.58 453.55C122.12 451.06 120.45 448.21 119.87 447.22C119.29 446.23 118.76 445.4 118.69 445.36C118.51 445.28 117.82 445.31 117.81 445.41C117.81 445.45 118.81 448.49 120.06 452.15C120.21 452.6 120.97 454.83 122.33 458.83C122.01 458.93 121.84 458.98 121.8 458.99C120.82 459.28 120.44 459.69 120.82 460C120.91 460.08 121.28 460.26 121.63 460.4C121.67 460.42 121.89 460.51 122.28 460.66C122.2 460.88 122.16 461.01 122.15 461.03C122.09 461.23 121.93 461.66 121.81 461.98C121.68 462.3 120.74 464.83 119.7 467.59C118.67 470.35 117.7 472.91 117.56 473.3C117.42 473.67 117.33 473.99 117.37 474.01C117.43 474.04 118.15 474.05 118.25 474.02C118.28 474.02 120.4 470.66 124 464.96C125.18 463.11 126.19 461.57 126.26 461.53C126.32 461.51 126.86 461.56 127.45 461.66C132.33 462.42 141.39 463.31 150.78 463.94C151.86 464.01 152.75 464.09 152.76 464.1C152.76 464.12 151.7 466.17 150.41 468.65C149.1 471.13 146.4 476.33 144.39 480.2C142.38 484.07 139.87 488.89 138.81 490.9C136.61 495.11 136.56 495.2 136.66 495.24C136.73 495.28 139.95 495.35 140.03 495.31C140.05 495.31 140.5 494.81 141.03 494.21C141.56 493.6 142.49 492.55 143.09 491.87C143.7 491.19 144.78 489.96 145.51 489.14C146.24 488.31 147.32 487.08 147.93 486.41C148.53 485.72 149.41 484.72 149.88 484.19C150.36 483.65 151.34 482.54 152.07 481.72C152.8 480.89 153.78 479.78 154.26 479.24C154.73 478.7 155.62 477.7 156.23 477.01C156.84 476.33 157.83 475.21 158.43 474.53C159.03 473.85 160.01 472.74 160.62 472.05C163.24 469.08 163.94 468.29 165.19 466.88C165.91 466.05 166.63 465.25 166.78 465.09C166.79 465.07 166.89 464.97 167.05 464.8C167.97 464.82 168.48 464.83 168.58 464.84C177.11 465.06 185.47 464.37 190.03 463.05C191.63 462.58 193.01 461.83 193.28 461.28C194.1 459.54 189.6 457.85 181.58 456.87C177.37 456.36 174.14 456.17 168.22 456.07C168.15 456.07 167.79 456.06 167.15 456.05C166.43 455.19 166.04 454.7 165.96 454.61C165.3 453.82 164.38 452.71 163.9 452.14C163.43 451.58 162.63 450.6 162.11 449.97C161.6 449.35 160.79 448.38 160.32 447.81C159.85 447.25 158.89 446.08 158.18 445.23C157.46 444.37 156.5 443.21 156.03 442.64C155.56 442.08 154.39 440.67 153.44 439.52C148.22 433.21 145.46 429.88 144.75 429.03C143.41 427.43 142.45 426.27 141.78 425.47C141.44 425.05 141.14 424.69 141.13 424.69C141.13 424.7 140.38 424.68 139.47 424.68C138.56 424.67 137.8 424.7 137.78 424.74Z" id="aRfMybChh"></path><path d="M172.33 453.34L196.74 427.62L206.57 427.1L182.15 452.82L172.33 453.34Z" id="e863l36AO"></path><path d="M206.57 494.34L182.15 468.62L172.33 468.1L196.74 493.82L206.57 494.34Z" id="a5xS0RjjX2"></path><path d="M19.52 424.52L131.46 424.52L131.46 428.52L19.52 428.52L19.52 424.52Z" id="aSRrweUae"></path><path d="M18.82 491L130.76 491L130.76 495L18.82 495L18.82 491Z" id="c1nlqYx1wz"></path><path d="M18.82 458L115.76 458L115.76 462L18.82 462L18.82 458Z" id="d1mONi8nLd"></path></defs><g><g><use xlink:href="#cioxeRDWp" opacity="1" fill="#283890" fill-opacity="1"></use><g><use xlink:href="#cioxeRDWp" opacity="1" fill-opacity="0" stroke="#000000" stroke-width="1" stroke-opacity="0"></use></g></g><g><use xlink:href="#b21Vrm8I63" opacity="1" fill="#283890" fill-opacity="1"></use><g><use xlink:href="#b21Vrm8I63" opacity="1" fill-opacity="0" stroke="#000000" stroke-width="1" stroke-opacity="0"></use></g></g><g><use xlink:href="#aTd8WJ81S" opacity="1" fill="#283890" fill-opacity="1"></use><g><use xlink:href="#aTd8WJ81S" opacity="1" fill-opacity="0" stroke="#000000" stroke-width="1" stroke-opacity="0"></use></g></g><g><use xlink:href="#awHMKlv1K" opacity="1" fill="#283890" fill-opacity="1"></use><g><use xlink:href="#awHMKlv1K" opacity="1" fill-opacity="0" stroke="#000000" stroke-width="1" stroke-opacity="0"></use></g></g><g><use xlink:href="#bvWOcZtrA" opacity="1" fill="#283890" fill-opacity="1"></use><g><use xlink:href="#bvWOcZtrA" opacity="1" fill-opacity="0" stroke="#000000" stroke-width="1" stroke-opacity="0"></use></g></g><g><use xlink:href="#b2hhHtLVZr" opacity="1" fill="#283890" fill-opacity="1"></use><g><use xlink:href="#b2hhHtLVZr" opacity="1" fill-opacity="0" stroke="#000000" stroke-width="1" stroke-opacity="0"></use></g></g><g><use xlink:href="#a9ctzA8y2s" opacity="1" fill="#283890" fill-opacity="1"></use><g><use xlink:href="#a9ctzA8y2s" opacity="1" fill-opacity="0" stroke="#000000" stroke-width="1" stroke-opacity="0"></use></g></g><g><use xlink:href="#bj55p1Gqp" opacity="1" fill="#283890" fill-opacity="1"></use><g><use xlink:href="#bj55p1Gqp" opacity="1" fill-opacity="0" stroke="#000000" stroke-width="1" stroke-opacity="0"></use></g></g><g><use xlink:href="#a1kwJ3vaF" opacity="1" fill="#283890" fill-opacity="1"></use><g><use xlink:href="#a1kwJ3vaF" opacity="1" fill-opacity="0" stroke="#000000" stroke-width="1" stroke-opacity="0"></use></g></g><g><use xlink:href="#i8HpAgXK3" opacity="1" fill="#283890" fill-opacity="1"></use><g><use xlink:href="#i8HpAgXK3" opacity="1" fill-opacity="0" stroke="#000000" stroke-width="1" stroke-opacity="0"></use></g></g><g><use xlink:href="#a13TZvkbTG" opacity="1" fill="#283890" fill-opacity="1"></use><g><use xlink:href="#a13TZvkbTG" opacity="1" fill-opacity="0" stroke="#000000" stroke-width="1" stroke-opacity="0"></use></g></g><g><use xlink:href="#a3lWeX9q5I" opacity="1" fill="#283890" fill-opacity="1"></use><g><use xlink:href="#a3lWeX9q5I" opacity="1" fill-opacity="0" stroke="#000000" stroke-width="1" stroke-opacity="0"></use></g></g><g><use xlink:href="#izErxoojm" opacity="1" fill="#283890" fill-opacity="1"></use><g><use xlink:href="#izErxoojm" opacity="1" fill-opacity="0" stroke="#000000" stroke-width="1" stroke-opacity="0"></use></g></g><g><use xlink:href="#f337MsJ9uQ" opacity="1" fill="#283890" fill-opacity="1"></use><g><use xlink:href="#f337MsJ9uQ" opacity="1" fill-opacity="0" stroke="#000000" stroke-width="1" stroke-opacity="0"></use></g></g><g><use xlink:href="#coLVOm5M6" opacity="1" fill="#283890" fill-opacity="1"></use><g><use xlink:href="#coLVOm5M6" opacity="1" fill-opacity="0" stroke="#000000" stroke-width="1" stroke-opacity="0"></use></g></g><g><use xlink:href="#a1V7t3qolb" opacity="1" fill="#283890" fill-opacity="1"></use><g><use xlink:href="#a1V7t3qolb" opacity="1" fill-opacity="0" stroke="#000000" stroke-width="1" stroke-opacity="0"></use></g></g><g><use xlink:href="#b4R4LsD73q" opacity="1" fill="#283890" fill-opacity="1"></use><g><use xlink:href="#b4R4LsD73q" opacity="1" fill-opacity="0" stroke="#000000" stroke-width="1" stroke-opacity="0"></use></g></g><g><use xlink:href="#aRfMybChh" opacity="1" fill="#283890" fill-opacity="1"></use><g><use xlink:href="#aRfMybChh" opacity="1" fill-opacity="0" stroke="#000000" stroke-width="1" stroke-opacity="0"></use></g></g><g><use xlink:href="#e863l36AO" opacity="1" fill="#283890" fill-opacity="1"></use></g><g><use xlink:href="#a5xS0RjjX2" opacity="1" fill="#283890" fill-opacity="1"></use></g><g><use xlink:href="#aSRrweUae" opacity="1" fill="#283890" fill-opacity="1"></use></g><g><use xlink:href="#c1nlqYx1wz" opacity="1" fill="#283890" fill-opacity="1"></use></g><g><use xlink:href="#d1mONi8nLd" opacity="1" fill="#283890" fill-opacity="1"></use></g></g></svg>