<?xml version="1.0" encoding="UTF-8" standalone="no"?>
<!DOCTYPE svg PUBLIC "-//W3C//DTD SVG 1.1//EN" "http://www.w3.org/Graphics/SVG/1.1/DTD/svg11.dtd">
<svg version="1.1" xmlns="http://www.w3.org/2000/svg" xmlns:xlink="http://www.w3.org/1999/xlink" preserveAspectRatio="xMidYMid meet" viewBox="12.057971014492646 119 545.1774763099222 159.32407148255584" width="541.18" height="155.32"><defs><path d="M136.02 139.86C135.94 151.68 142.44 157.33 161.54 162.3C173.44 165.38 176.1 167.01 176.44 171.89C176.7 174.97 176.35 175.91 174.21 177.97C166.34 185.93 151.35 182.42 148.18 171.89C148.11 171.65 147.77 170.48 147.15 168.38C143.04 168.74 140.76 168.94 140.3 168.98C136.54 169.32 133.37 169.66 133.2 169.83C132.51 170.43 135.42 179.08 137.48 182.59C141.85 189.95 151.18 194.32 162.65 194.32C176.61 194.32 185.94 189.44 189.88 180.02C191.42 176.42 191.6 168.8 190.23 164.27C187.83 156.47 182.09 152.71 165.39 148.08C159.91 146.54 154.26 144.66 152.89 143.8C145.78 139.52 151.44 131.81 161.63 131.81C167.53 131.81 171.47 133.95 173.61 138.4C173.73 138.64 174.3 139.84 175.33 142L182.52 142.09L189.71 142.09C189.35 139.98 189.15 138.81 189.11 138.58C187.91 131.13 183.46 125.56 176.18 122.31C170.62 119.82 158.54 119.22 151.78 121.11C141.59 124.02 136.11 130.53 136.02 139.86Z" id="a46SKHtGkw"></path><path d="M13.92 193.47L40.89 193.47L67.86 193.47L67.86 187.47L67.86 181.48L48 181.31L28.04 181.05L28.04 171.63L28.04 162.21L46.28 161.95L64.44 161.78L64.44 155.79L64.44 149.79L46.03 149.79L27.53 149.79L27.79 141.83L28.04 133.95L47.57 133.69L67.01 133.52L67.01 127.53L67.01 121.54L40.46 121.54L13.92 121.54L13.92 157.5L13.92 193.47Z" id="aospKnRf"></path><path d="M79.85 158.1C79.85 160.46 79.85 172.25 79.85 193.47L86.7 193.47L93.55 193.47L93.55 157.5L93.55 121.54C89.8 121.54 87.72 121.54 87.3 121.54C83.79 121.54 80.71 121.79 80.45 122.13C80.11 122.39 79.85 138.58 79.85 158.1Z" id="a2HOmQCcuQ"></path><path d="M258.81 158.1C258.81 160.46 258.81 172.25 258.81 193.47L265.67 193.47L272.52 193.47L272.52 157.5L272.52 121.54C268.76 121.54 266.68 121.54 266.26 121.54C262.75 121.54 259.67 121.79 259.41 122.13C259.07 122.39 258.81 138.58 258.81 158.1Z" id="a13cqRDSvX"></path><path d="M433.5 147.57C432.11 146.18 431.34 145.41 431.19 145.26C422.88 137.38 407.9 139.26 401.22 149.19C397.79 154.33 396.34 161.18 396.93 170C397.62 181.13 401.56 188.07 409.69 192.1C417.14 195.78 425.88 194.41 432.04 188.58C432.2 188.43 432.97 187.66 434.35 186.27L434.35 189.87L434.35 193.47L440.78 193.47L447.2 193.47L447.2 157.5L447.2 121.54L440.35 121.54L433.5 121.54L433.5 134.55L433.5 147.57ZM433.5 167.01C433.5 173.77 432.13 177.54 428.7 180.54C423.31 185.33 415.94 183.7 412.35 176.94C410.29 173.09 410.29 160.67 412.35 156.82C415.77 150.39 424.16 148.85 429.13 153.56C432.04 156.39 433.5 160.84 433.5 167.01Z" id="b3Ks2nxzWE"></path><path d="M201.96 152.96C201.44 154.59 201.87 154.85 205.72 155.7C212.23 157.07 213.86 156.9 215.14 154.59C216.69 151.68 220.37 150.31 225.16 150.91C229.79 151.42 232.53 153.9 232.1 157.41C231.84 159.47 231.24 159.81 224.99 161.18C210.18 164.61 207.01 165.89 203.76 169.4C200.24 173.34 199.13 177.88 200.59 183.28C203.5 194.07 218.31 197.83 229.19 190.47C233.21 187.73 233.38 187.81 234.58 190.9C235.52 193.47 235.61 193.47 242.03 193.47C245.63 193.47 248.54 193.38 248.54 193.21C248.54 193.12 247.94 191.5 247.25 189.61C246.4 187.21 246.06 181.99 245.97 171.63C245.8 149.62 244.86 146.28 237.75 142.6C235.1 141.23 232.53 140.8 225.42 140.63C220.45 140.55 215.4 140.8 214.12 141.14C208.46 143.03 203.67 147.65 201.96 152.96ZM221.39 184.39C217.28 184.47 214.8 182.59 213.86 178.82C212.92 175.05 216.26 172.14 223.71 170.35C232.61 168.12 232.27 168.03 232.27 172.49C232.27 179.76 228.16 184.22 221.39 184.39Z" id="aRNM4nCuj"></path><path d="M341.53 152.96C341.02 154.59 341.45 154.85 345.3 155.7C351.81 157.07 353.44 156.9 354.72 154.59C356.26 151.68 359.94 150.31 364.74 150.91C369.36 151.42 372.1 153.9 371.67 157.41C371.42 159.47 370.82 159.81 364.57 161.18C349.75 164.61 346.58 165.89 343.33 169.4C339.82 173.34 338.71 177.88 340.16 183.28C343.07 194.07 357.89 197.83 368.76 190.47C372.79 187.73 372.96 187.81 374.16 190.9C375.1 193.47 375.18 193.47 381.61 193.47C385.2 193.47 388.11 193.38 388.11 193.21C388.11 193.12 387.52 191.5 386.83 189.61C385.97 187.21 385.63 181.99 385.55 171.63C385.37 149.62 384.43 146.28 377.33 142.6C374.67 141.23 372.1 140.8 365 140.63C360.03 140.55 354.98 140.8 353.69 141.14C348.04 143.03 343.25 147.65 341.53 152.96ZM360.97 184.39C356.86 184.47 354.38 182.59 353.44 178.82C352.49 175.05 355.83 172.14 363.28 170.35C372.19 168.12 371.85 168.03 371.85 172.49C371.85 179.76 367.74 184.22 360.97 184.39Z" id="ayYeeKPOc"></path><path d="M459.96 154.93C457.13 160.33 456.96 173.94 459.7 179.76C462.1 184.9 466.29 189.01 472.03 191.67C475.97 193.55 477.94 193.89 484.02 193.89C490.27 193.89 491.98 193.55 496.18 191.5C505.17 187.04 509.79 179.76 510.39 168.98C510.91 160.24 509.19 154.85 504.4 149.37C499.26 143.54 493.7 140.97 485.3 140.72C481.54 140.55 477.51 140.72 476.31 141.14C468.95 143.54 463.47 148.17 459.96 154.93ZM496.44 167.35C496.44 174.28 494.64 178.14 489.93 181.31C484.53 184.99 477.17 182.76 473.32 176.25C470.92 172.14 470.92 162.55 473.4 158.36C475.71 154.33 480.08 151.51 484.02 151.51C485.9 151.51 488.39 152.28 490.01 153.48C494.64 156.56 496.44 160.41 496.44 167.35Z" id="f4m7On6cG1"></path><path d="M536.51 145C536.33 145.2 535.41 146.2 533.77 148L533.51 144.83L533.26 141.66L527.09 141.4L520.84 141.14L520.84 167.35L520.84 193.47L527.69 193.47L534.54 193.47C534.54 184.83 534.54 180.04 534.54 179.08C534.54 171.2 534.97 163.07 535.48 160.93C537.02 154.08 541.39 151.25 546.96 153.65C549.27 154.59 550.13 154.59 550.38 153.82C550.55 153.22 551.5 150.65 552.52 148.08C553.46 145.51 554.24 143.29 554.24 143.11C554.24 142.94 552.87 142.26 551.24 141.57C547.98 140.29 543.7 140.12 540.88 141.23C539.94 141.57 537.97 143.29 536.51 145Z" id="bMOWjyMgq"></path><path d="M297.86 183.79C298.12 184.43 299.44 187.66 301.8 193.47L308.05 193.47L314.22 193.47C320.18 178.36 323.49 169.97 324.15 168.29C329.72 154.42 334.17 142.69 334.17 142.17C334.17 140.8 321.75 140.89 320.72 142.26C319.95 143.2 310.88 167.52 308.74 174.11C308.05 176.34 307.62 175.48 303.51 164.27C301.12 157.5 298.2 149.62 297.09 146.8C296.96 146.45 296.3 144.74 295.12 141.66C291.22 141.5 289.05 141.42 288.61 141.4C285.02 141.23 281.85 141.49 281.59 141.92C281.25 142.51 286.56 156.3 297.86 183.79Z" id="f2HftK4PCi"></path><path d="M209.91 259.39L224.47 259.39L239.02 259.39L239.02 257.25L239.02 255.19L227.29 254.94L215.47 254.68L215.22 248L214.96 241.41L226.18 241.41L237.31 241.41L237.31 239.27L237.31 237.21L226.43 236.96L215.47 236.7L215.47 230.7L215.47 224.71L226.86 224.45L238.17 224.2L238.17 222.14L238.17 220L224.04 220L209.91 220L209.91 239.7L209.91 259.39Z" id="c6aJBQi5s"></path><path d="M266.94 229.93C267.37 230.54 269.51 233.56 273.36 239.01C268.99 244.87 266.57 248.12 266.08 248.77C262.06 254.08 258.72 258.71 258.72 258.96C258.72 259.22 260 259.39 261.54 259.39C264.2 259.39 264.88 258.79 270.19 251.26C273.36 246.8 276.1 243.12 276.19 243.12C276.27 243.12 278.84 246.8 281.92 251.26C287.23 259.05 287.49 259.3 290.66 259.39C293.05 259.39 293.74 259.13 293.31 258.28C292.88 257.76 289.63 253.05 285.95 247.92C281.84 242.09 279.52 238.24 279.95 237.64C280.38 237.13 283.12 233.44 286.12 229.42C289.12 225.39 291.94 221.63 292.37 221.03C292.97 220.26 292.45 220 290.23 220C287.57 220 286.89 220.6 281.92 227.28C279.01 231.3 276.44 234.56 276.36 234.56C276.27 234.56 273.87 231.3 271.13 227.28C266.59 220.6 265.91 220 263.26 220C261.71 220 260.43 220.17 260.43 220.43C260.43 220.6 263.34 224.88 266.94 229.93Z" id="ca0OSB5kcZ"></path><path d="M313.52 259.39L316.09 259.39L318.66 259.39L318.66 251.26L318.66 243.12C323.69 243.12 326.49 243.12 327.05 243.12C333.9 243.12 335.87 242.78 338.18 241.41C345.72 236.78 344.69 223.94 336.55 221.11C334.93 220.51 329.1 220.09 323.62 220.09C322.95 220.08 319.58 220.05 313.52 220L313.52 239.7L313.52 259.39ZM334.41 237.9C333.21 238.41 329.19 238.84 325.51 238.84C325.05 238.84 322.77 238.84 318.66 238.84L318.66 231.47L318.66 224.11C323.28 224.32 325.85 224.43 326.36 224.45C332.1 224.71 334.41 225.22 335.7 226.34C339.29 229.59 338.61 235.93 334.41 237.9Z" id="c8ZMMUriI"></path><path d="M364.9 259.39L367.47 259.39L370.03 259.39L370.03 250.31L370.03 241.24C373.12 241.44 374.83 241.56 375.17 241.58C381.34 242.01 382.45 242.95 388.62 252.28C392.9 258.96 393.33 259.39 396.15 259.39C397.78 259.39 399.15 259.22 399.15 258.96C399.15 257.76 389.47 243.81 388.02 242.95C385.7 241.49 385.88 240.89 388.7 240.29C391.96 239.61 395.55 235.84 396.24 232.33C397.01 228.31 394.44 223.43 390.59 221.54C388.19 220.34 385.36 220 376.29 220C375.53 220 371.73 220 364.9 220L364.9 239.7L364.9 259.39ZM388.79 235.07C387.33 236.36 385.36 236.78 378.51 236.96C377.95 236.98 375.12 237.09 370.03 237.3L370.03 230.79L370.03 224.28C374.86 224.28 377.55 224.28 378.08 224.28C384.85 224.28 386.39 224.54 388.36 226.08C391.19 228.31 391.44 232.67 388.79 235.07Z" id="cmHBGWvSJ"></path><path d="M419.7 259.39L434.26 259.39L448.81 259.39L448.81 257.25L448.81 255.19L437.08 254.94L425.27 254.68L425.01 248L424.75 241.41L435.97 241.41L447.1 241.41L447.1 239.27L447.1 237.21L436.23 236.96L425.27 236.7L425.27 230.7L425.27 224.71L436.65 224.45L447.96 224.2L447.96 222.14L447.96 220L433.83 220L419.7 220L419.7 239.7L419.7 259.39Z" id="b3MVVa6Izq"></path><path d="M472.02 234.81C473.22 237.47 477.84 240.04 483.92 241.41C493.85 243.63 496.59 246.03 494.88 251C492.57 257.68 477.07 256.39 474.93 249.29C474.25 246.97 473.73 246.55 471.68 246.55C469.28 246.55 469.19 246.72 469.71 249.29C471.25 257.16 479.3 261.36 489.66 259.82C492.74 259.39 494.45 258.45 496.94 255.97C499.76 253.23 500.19 252.2 500.19 248.94C500.19 242.35 496.59 239.18 485.98 236.61C478.18 234.73 476.21 233.44 476.21 230.28C476.21 225.82 480.15 223.68 486.75 224.54C490.43 225.05 494.2 228.22 494.2 230.79C494.2 232.07 496.51 232.42 498.39 231.22C500.88 229.59 496.85 223.25 491.89 221.2C488.37 219.66 480.84 219.74 477.41 221.2C472.02 223.6 469.62 229.59 472.02 234.81Z" id="d42kVA2BU"></path><path d="M523.4 234.81C524.6 237.47 529.22 240.04 535.3 241.41C545.23 243.63 547.97 246.03 546.26 251C543.95 257.68 528.45 256.39 526.31 249.29C525.62 246.97 525.11 246.55 523.05 246.55C520.66 246.55 520.57 246.72 521.08 249.29C522.63 257.16 530.68 261.36 541.04 259.82C544.12 259.39 545.83 258.45 548.31 255.97C551.14 253.23 551.57 252.2 551.57 248.94C551.57 242.35 547.97 239.18 537.35 236.61C529.56 234.73 527.59 233.44 527.59 230.28C527.59 225.82 531.53 223.68 538.12 224.54C541.81 225.05 545.57 228.22 545.57 230.79C545.57 232.07 547.89 232.42 549.77 231.22C552.25 229.59 548.23 223.25 543.26 221.2C539.75 219.66 532.22 219.74 528.79 221.2C523.4 223.6 521 229.59 523.4 234.81Z" id="a12zktjNFO"></path><path d="M132.02 204.74C131.99 204.78 135.37 211.86 139.53 220.46C143.68 229.07 147.09 236.16 147.11 236.22C147.17 236.36 147.43 236.34 143.43 236.5C134.65 236.84 126.19 237.42 121.54 238C121 238.07 120.54 238.11 120.52 238.1C120.5 238.08 119.28 236.04 117.82 233.55C116.36 231.06 114.69 228.21 114.1 227.22C113.52 226.23 112.99 225.4 112.92 225.36C112.75 225.28 112.05 225.31 112.04 225.41C112.04 225.45 113.05 228.49 114.3 232.15C114.45 232.6 115.2 234.83 116.56 238.83C116.25 238.93 116.07 238.98 116.04 238.99C115.06 239.28 114.67 239.69 115.06 240C115.15 240.08 115.52 240.26 115.87 240.4C115.91 240.42 116.12 240.51 116.51 240.66C116.44 240.88 116.4 241.01 116.39 241.03C116.32 241.23 116.16 241.66 116.04 241.98C115.92 242.3 114.97 244.83 113.93 247.59C112.9 250.35 111.94 252.91 111.79 253.3C111.65 253.67 111.56 253.99 111.6 254.01C111.66 254.04 112.39 254.05 112.48 254.02C112.51 254.02 114.64 250.66 118.24 244.96C119.41 243.11 120.43 241.57 120.49 241.53C120.56 241.51 121.1 241.56 121.69 241.66C126.56 242.42 135.62 243.31 145.02 243.94C146.09 244.01 146.98 244.09 146.99 244.1C146.99 244.12 145.94 246.17 144.64 248.65C143.34 251.13 140.64 256.33 138.62 260.2C136.61 264.07 134.1 268.89 133.05 270.9C130.84 275.11 130.8 275.2 130.9 275.24C130.97 275.28 134.18 275.35 134.26 275.31C134.28 275.31 134.73 274.81 135.27 274.21C135.79 273.6 136.73 272.55 137.32 271.87C137.93 271.19 139.02 269.96 139.74 269.14C140.48 268.31 141.56 267.08 142.16 266.41C142.77 265.72 143.64 264.72 144.12 264.19C144.6 263.65 145.58 262.54 146.3 261.72C147.04 260.89 148.02 259.78 148.49 259.24C148.97 258.7 149.86 257.7 150.46 257.01C151.07 256.33 152.06 255.21 152.66 254.53C153.26 253.85 154.25 252.74 154.85 252.05C157.48 249.08 158.17 248.29 159.43 246.88C160.15 246.05 160.86 245.25 161.01 245.09C161.03 245.07 161.12 244.97 161.29 244.8C162.21 244.82 162.72 244.83 162.82 244.84C171.35 245.06 179.71 244.37 184.26 243.05C185.87 242.58 187.25 241.83 187.51 241.28C188.33 239.54 183.84 237.85 175.81 236.87C171.61 236.36 168.37 236.17 162.46 236.07C162.38 236.07 162.03 236.06 161.38 236.05C160.67 235.19 160.27 234.7 160.19 234.61C159.53 233.82 158.61 232.71 158.14 232.14C157.67 231.58 156.86 230.6 156.35 229.97C155.83 229.35 155.03 228.38 154.56 227.81C154.09 227.25 153.12 226.08 152.41 225.23C151.7 224.37 150.74 223.21 150.27 222.64C149.79 222.08 148.63 220.67 147.68 219.52C142.45 213.21 139.69 209.88 138.98 209.03C137.65 207.43 136.69 206.27 136.02 205.47C135.67 205.05 135.38 204.69 135.37 204.69C135.37 204.7 134.62 204.68 133.71 204.68C132.79 204.67 132.03 204.7 132.02 204.74Z" id="c8hGHmaeE8"></path><path d="M166.56 233.34L190.98 207.62L200.8 207.1L176.38 232.82L166.56 233.34Z" id="gjdM7BqIg"></path><path d="M200.8 274.34L176.38 248.62L166.56 248.1L190.98 273.82L200.8 274.34Z" id="g1Tbqg1eVY"></path><path d="M13.75 204.52L125.7 204.52L125.7 208.52L13.75 208.52L13.75 204.52Z" id="aE73wyudR"></path><path d="M13.06 271L125 271L125 275L13.06 275L13.06 271Z" id="a7ZA8iXlXm"></path><path d="M13.06 238L110 238L110 242L13.06 242L13.06 238Z" id="d2kfCT17Oy"></path></defs><g><g><use xlink:href="#a46SKHtGkw" opacity="1" fill="#ffff00" fill-opacity="1"></use><g><use xlink:href="#a46SKHtGkw" opacity="1" fill-opacity="0" stroke="#000000" stroke-width="1" stroke-opacity="0"></use></g></g><g><use xlink:href="#aospKnRf" opacity="1" fill="#ffff00" fill-opacity="1"></use><g><use xlink:href="#aospKnRf" opacity="1" fill-opacity="0" stroke="#000000" stroke-width="1" stroke-opacity="0"></use></g></g><g><use xlink:href="#a2HOmQCcuQ" opacity="1" fill="#ffff00" fill-opacity="1"></use><g><use xlink:href="#a2HOmQCcuQ" opacity="1" fill-opacity="0" stroke="#000000" stroke-width="1" stroke-opacity="0"></use></g></g><g><use xlink:href="#a13cqRDSvX" opacity="1" fill="#ffff00" fill-opacity="1"></use><g><use xlink:href="#a13cqRDSvX" opacity="1" fill-opacity="0" stroke="#000000" stroke-width="1" stroke-opacity="0"></use></g></g><g><use xlink:href="#b3Ks2nxzWE" opacity="1" fill="#ffff00" fill-opacity="1"></use><g><use xlink:href="#b3Ks2nxzWE" opacity="1" fill-opacity="0" stroke="#000000" stroke-width="1" stroke-opacity="0"></use></g></g><g><use xlink:href="#aRNM4nCuj" opacity="1" fill="#ffff00" fill-opacity="1"></use><g><use xlink:href="#aRNM4nCuj" opacity="1" fill-opacity="0" stroke="#000000" stroke-width="1" stroke-opacity="0"></use></g></g><g><use xlink:href="#ayYeeKPOc" opacity="1" fill="#ffff00" fill-opacity="1"></use><g><use xlink:href="#ayYeeKPOc" opacity="1" fill-opacity="0" stroke="#000000" stroke-width="1" stroke-opacity="0"></use></g></g><g><use xlink:href="#f4m7On6cG1" opacity="1" fill="#ffff00" fill-opacity="1"></use><g><use xlink:href="#f4m7On6cG1" opacity="1" fill-opacity="0" stroke="#000000" stroke-width="1" stroke-opacity="0"></use></g></g><g><use xlink:href="#bMOWjyMgq" opacity="1" fill="#ffff00" fill-opacity="1"></use><g><use xlink:href="#bMOWjyMgq" opacity="1" fill-opacity="0" stroke="#000000" stroke-width="1" stroke-opacity="0"></use></g></g><g><use xlink:href="#f2HftK4PCi" opacity="1" fill="#ffff00" fill-opacity="1"></use><g><use xlink:href="#f2HftK4PCi" opacity="1" fill-opacity="0" stroke="#000000" stroke-width="1" stroke-opacity="0"></use></g></g><g><use xlink:href="#c6aJBQi5s" opacity="1" fill="#ffffff" fill-opacity="1"></use><g><use xlink:href="#c6aJBQi5s" opacity="1" fill-opacity="0" stroke="#000000" stroke-width="1" stroke-opacity="0"></use></g></g><g><use xlink:href="#ca0OSB5kcZ" opacity="1" fill="#ffffff" fill-opacity="1"></use><g><use xlink:href="#ca0OSB5kcZ" opacity="1" fill-opacity="0" stroke="#000000" stroke-width="1" stroke-opacity="0"></use></g></g><g><use xlink:href="#c8ZMMUriI" opacity="1" fill="#ffffff" fill-opacity="1"></use><g><use xlink:href="#c8ZMMUriI" opacity="1" fill-opacity="0" stroke="#000000" stroke-width="1" stroke-opacity="0"></use></g></g><g><use xlink:href="#cmHBGWvSJ" opacity="1" fill="#ffffff" fill-opacity="1"></use><g><use xlink:href="#cmHBGWvSJ" opacity="1" fill-opacity="0" stroke="#000000" stroke-width="1" stroke-opacity="0"></use></g></g><g><use xlink:href="#b3MVVa6Izq" opacity="1" fill="#ffffff" fill-opacity="1"></use><g><use xlink:href="#b3MVVa6Izq" opacity="1" fill-opacity="0" stroke="#000000" stroke-width="1" stroke-opacity="0"></use></g></g><g><use xlink:href="#d42kVA2BU" opacity="1" fill="#ffffff" fill-opacity="1"></use><g><use xlink:href="#d42kVA2BU" opacity="1" fill-opacity="0" stroke="#000000" stroke-width="1" stroke-opacity="0"></use></g></g><g><use xlink:href="#a12zktjNFO" opacity="1" fill="#ffffff" fill-opacity="1"></use><g><use xlink:href="#a12zktjNFO" opacity="1" fill-opacity="0" stroke="#000000" stroke-width="1" stroke-opacity="0"></use></g></g><g><use xlink:href="#c8hGHmaeE8" opacity="1" fill="#ffff00" fill-opacity="1"></use><g><use xlink:href="#c8hGHmaeE8" opacity="1" fill-opacity="0" stroke="#000000" stroke-width="1" stroke-opacity="0"></use></g></g><g><use xlink:href="#gjdM7BqIg" opacity="1" fill="#ffffff" fill-opacity="1"></use></g><g><use xlink:href="#g1Tbqg1eVY" opacity="1" fill="#ffffff" fill-opacity="1"></use></g><g><use xlink:href="#aE73wyudR" opacity="1" fill="#ffffff" fill-opacity="1"></use></g><g><use xlink:href="#a7ZA8iXlXm" opacity="1" fill="#ffffff" fill-opacity="1"></use></g><g><use xlink:href="#d2kfCT17Oy" opacity="1" fill="#ffffff" fill-opacity="1"></use></g></g></svg>